<?xml version="1.0" encoding="utf-8"?>
<!-- Generator: Adobe Illustrator 24.2.3, SVG Export Plug-In . SVG Version: 6.00 Build 0)  -->
<svg version="1.1" id="Layer_1" xmlns="http://www.w3.org/2000/svg" xmlns:xlink="http://www.w3.org/1999/xlink" x="0px" y="0px"
	 viewBox="0 0 24 24" style="enable-background:new 0 0 24 24;" xml:space="preserve">
<style type="text/css">
	.st0{fill:#DE0D2C;}
	.st1{display:none;}
</style>
<path class="st0" d="M20,2H4C2.9,2,2,2.9,2,4v12c0,1.1,0.9,2,2,2h3v3.8l6.3-3.8H20c1.1,0,2-0.9,2-2V4C22,2.9,21.1,2,20,2z M20,16
	h-7.3L9,18.2V16H4V4h16V16z"/>
<path class="st1" d="M17.2,7.2l-1.4-1.4L11,10.6L8.7,8.3L7.3,9.7l3.7,3.7L17.2,7.2z"/>
</svg>
