<?xml version="1.0" encoding="utf-8"?>
<!-- Generator: Adobe Illustrator 24.2.3, SVG Export Plug-In . SVG Version: 6.00 Build 0)  -->
<svg version="1.1" xmlns="http://www.w3.org/2000/svg" xmlns:xlink="http://www.w3.org/1999/xlink" x="0px" y="0px"
	 viewBox="0 0 37 32.9" style="enable-background:new 0 0 37 32.9;" xml:space="preserve">
<style type="text/css">
	.st0{fill:#EAEAF2;}
	.st1{fill:#FE6F0E;}
</style>
<g id="Layer_3">
</g>
<g id="Layer_2">
	<ellipse class="st0" cx="20.3" cy="16.2" rx="15.8" ry="15.6"/>
</g>
<g id="Layer_1">
	<path class="st1" d="M21.5,15.7h1.8v3.6h-1.8V15.7z"/>
	<path class="st1" d="M26.8,11.2V9.4c0-1-0.8-1.8-1.8-1.8H13.6c-1.5,0-2.7,1.2-2.7,2.7v10.8c0,2,1.6,2.7,2.7,2.7h13.3
		c1,0,1.8-0.8,1.8-1.8v-9C28.6,12,27.8,11.2,26.8,11.2z M13.6,9.4h11.5v1.8H13.6c-0.5,0-0.9-0.4-0.9-0.9S13.1,9.4,13.6,9.4z
		 M26.8,22H13.6c-0.4,0-0.9-0.2-0.9-0.9v-8.3c0.3,0.1,0.6,0.2,0.9,0.2h13.3V22z"/>
</g>
</svg>
