<?xml version="1.0" encoding="utf-8"?>
<!-- Generator: Adobe Illustrator 24.2.3, SVG Export Plug-In . SVG Version: 6.00 Build 0)  -->
<svg version="1.1" xmlns="http://www.w3.org/2000/svg" xmlns:xlink="http://www.w3.org/1999/xlink" x="0px" y="0px"
	 viewBox="0 0 35.7 36" style="enable-background:new 0 0 35.7 36;" xml:space="preserve">
<style type="text/css">
	.st0{display:none;}
	.st1{fill:#EAEAF2;}
</style>
<g id="Layer_2" class="st0">
</g>
<g id="Layer_3">
	<circle class="st1" cx="18.4" cy="16.7" r="15.2"/>
</g>
<g id="Layer_1">
	<path d="M11.3,17.9h5.1c0.5,0,0.8-0.4,0.8-0.8v-6.8c0-0.5-0.4-0.8-0.8-0.8h-5.1c-0.5,0-0.8,0.4-0.8,0.8v6.8
		C10.4,17.6,10.8,17.9,11.3,17.9z M10.4,23.9c0,0.5,0.4,0.8,0.8,0.8h5.1c0.5,0,0.8-0.4,0.8-0.8v-3.4c0-0.5-0.4-0.8-0.8-0.8h-5.1
		c-0.5,0-0.8,0.4-0.8,0.8V23.9z M18.9,23.9c0,0.5,0.4,0.8,0.8,0.8h5.1c0.5,0,0.8-0.4,0.8-0.8v-5.9c0-0.5-0.4-0.8-0.8-0.8h-5.1
		c-0.5,0-0.8,0.4-0.8,0.8V23.9z M19.8,15.4h5.1c0.5,0,0.8-0.4,0.8-0.8v-4.2c0-0.5-0.4-0.8-0.8-0.8h-5.1c-0.5,0-0.8,0.4-0.8,0.8v4.2
		C18.9,15,19.3,15.4,19.8,15.4z"/>
</g>
</svg>
